<?xml version="1.0" encoding="UTF-8" standalone="no"?>
<svg
   xmlns:dc="http://purl.org/dc/elements/1.1/"
   xmlns:cc="http://creativecommons.org/ns#"
   xmlns:rdf="http://www.w3.org/1999/02/22-rdf-syntax-ns#"
   xmlns:svg="http://www.w3.org/2000/svg"
   xmlns="http://www.w3.org/2000/svg"
   xmlns:sodipodi="http://sodipodi.sourceforge.net/DTD/sodipodi-0.dtd"
   xmlns:inkscape="http://www.inkscape.org/namespaces/inkscape"
   width="600"
   height="530"
   version="1.1"
   id="svg4"
   sodipodi:docname="bluesky.svg"
   inkscape:version="1.0.2-2 (e86c870879, 2021-01-15)">
  <metadata
     id="metadata10">
    <rdf:RDF>
      <cc:Work
         rdf:about="">
        <dc:format>image/svg+xml</dc:format>
        <dc:type
           rdf:resource="http://purl.org/dc/dcmitype/StillImage" />
      </cc:Work>
    </rdf:RDF>
  </metadata>
  <defs
     id="defs8" />
  <sodipodi:namedview
     pagecolor="#ffffff"
     bordercolor="#666666"
     borderopacity="1"
     objecttolerance="10"
     gridtolerance="10"
     guidetolerance="10"
     inkscape:pageopacity="0"
     inkscape:pageshadow="2"
     inkscape:window-width="1920"
     inkscape:window-height="1027"
     id="namedview6"
     showgrid="false"
     inkscape:zoom="1.6226415"
     inkscape:cx="300"
     inkscape:cy="231.52986"
     inkscape:window-x="-8"
     inkscape:window-y="-8"
     inkscape:window-maximized="1"
     inkscape:current-layer="svg4" />
  <path
     d="M 130.05794,35.675519 C 198.84649,87.485062 272.8364,192.53324 300.00176,248.9082 327.16919,192.53738 401.15496,87.484024 469.94559,35.675519 519.57978,-1.7081783 600,-30.633555 600,61.408529 c 0,18.382055 -10.50511,154.418821 -16.66646,176.503851 -21.41676,76.78287 -99.45872,96.36673 -168.87832,84.51366 121.34412,20.71925 152.21291,89.34892 85.54813,157.97859 -126.6096,130.34114 -181.9748,-32.70309 -196.16782,-74.48096 -2.60068,-7.65888 -3.81764,-11.24178 -3.83552,-8.19513 -0.018,-3.04675 -1.23486,0.53624 -3.83554,8.19513 C 281.97765,447.70154 226.6135,610.74992 99.996654,480.40463 33.33084,411.77496 64.198589,343.14115 185.54478,322.42604 116.12311,334.27911 38.080121,314.69514 16.666453,237.91238 10.504903,215.82527 0,79.78851 0,61.408529 0,-30.633555 80.422287,-1.7081783 130.05441,35.675519 Z"
     fill="#1185fe"
     id="path2"
     style="fill:#ffffff;stroke-width:1.03616" />
</svg>
