<?xml version="1.0" encoding="UTF-8" standalone="no"?>
<svg
   xmlns:dc="http://purl.org/dc/elements/1.1/"
   xmlns:cc="http://creativecommons.org/ns#"
   xmlns:rdf="http://www.w3.org/1999/02/22-rdf-syntax-ns#"
   xmlns:svg="http://www.w3.org/2000/svg"
   xmlns="http://www.w3.org/2000/svg"
   xmlns:sodipodi="http://sodipodi.sourceforge.net/DTD/sodipodi-0.dtd"
   xmlns:inkscape="http://www.inkscape.org/namespaces/inkscape"
   viewBox="0 0 2048 2048"
   version="1.1"
   id="svg4"
   sodipodi:docname="Reddit_(1).svg"
   inkscape:version="1.0.2-2 (e86c870879, 2021-01-15)">
  <metadata
     id="metadata10">
    <rdf:RDF>
      <cc:Work
         rdf:about="">
        <dc:format>image/svg+xml</dc:format>
        <dc:type
           rdf:resource="http://purl.org/dc/dcmitype/StillImage" />
      </cc:Work>
    </rdf:RDF>
  </metadata>
  <defs
     id="defs8" />
  <sodipodi:namedview
     pagecolor="#ffffff"
     bordercolor="#666666"
     borderopacity="1"
     objecttolerance="10"
     gridtolerance="10"
     guidetolerance="10"
     inkscape:pageopacity="0"
     inkscape:pageshadow="2"
     inkscape:window-width="1920"
     inkscape:window-height="1027"
     id="namedview6"
     showgrid="false"
     inkscape:zoom="0.41992188"
     inkscape:cx="1024"
     inkscape:cy="867.43819"
     inkscape:window-x="-8"
     inkscape:window-y="-8"
     inkscape:window-maximized="1"
     inkscape:current-layer="svg4" />
  <path
     d="m 799.74799,1229.5867 c -57.0363,0 -102.91331,-45.877 -102.91331,-101.6734 0,-57.0362 45.87701,-102.9133 102.91331,-102.9133 56.20967,0 101.67339,45.8771 101.67339,102.9133 0,56.2096 -45.87703,101.6734 -101.67339,101.6734 z M 2050,1025 c 0,566.2299 -458.7701,1025 -1025,1025 C 458.77016,2050 0,1591.2299 0,1025 0,458.77017 458.77016,0 1025,0 1591.2299,0 2050,458.77017 2050,1025 Z M 1503.1956,854.71774 c -38.8508,0 -73.1552,16.11895 -98.367,41.33065 -92.5806,-64.0625 -217.3992,-105.39315 -355.8568,-109.93952 l 71.9153,-323.61895 228.9718,51.6633 c 0,56.20968 45.877,101.67339 101.6734,101.67339 57.0362,0 102.9133,-46.70362 102.9133,-102.9133 C 1554.4456,456.70363 1508.5685,410 1451.5322,410 c -40.0907,0 -74.3951,23.97178 -91.3407,57.03629 L 1107.248,410.82661 c -12.3991,-3.30644 -25.2116,5.78629 -28.5181,18.18549 L 999.78832,786.10887 C 862.57056,791.89517 738.99194,832.8125 646.41129,896.875 621.1996,870.42339 585.65525,854.71774 546.80444,854.71774 c -144.24395,0 -191.36089,193.84076 -59.51613,259.55646 -4.54637,20.6654 -7.02621,42.1572 -7.02621,64.0625 0,217.3991 244.67741,393.4677 545.5645,393.4677 302.127,0 546.8044,-176.0686 546.8044,-393.4677 0,-21.9053 -2.4799,-44.6371 -7.8528,-65.3024 129.3649,-66.129 81.8347,-258.31656 -61.5826,-258.31656 z m -284.7681,480.26216 c -75.2219,75.2218 -314.52623,73.9818 -386.85492,0 -9.09274,-9.0928 -25.21169,-9.0928 -34.30443,0 -10.33266,10.3326 -10.33266,26.4515 0,35.5443 94.2339,94.2339 360.81645,94.2339 455.46375,0 10.3326,-9.0928 10.3326,-25.2117 0,-35.5443 -9.0928,-9.0928 -25.2118,-9.0928 -34.3044,0 z M 1250.252,1025 c -56.2096,0 -101.6734,45.8771 -101.6734,102.9133 0,56.2096 45.877,101.6734 101.6734,101.6734 57.0363,0 102.9134,-45.877 102.9134,-101.6734 0,-57.0362 -45.4638,-102.9133 -102.9134,-102.9133 z"
     id="path2"
     style="stroke-width:4.13307;fill:#ffffff" />
</svg>
